<svg xmlns="http://www.w3.org/2000/svg" width="560" height="400" viewBox="0 0 560 400" role="img" aria-label="Painel de controle da plataforma Lumen">
  <!-- Window chrome -->
  <rect width="560" height="400" rx="16" fill="#1A1A2E"/>
  <rect width="560" height="44" rx="16" fill="#16213E"/>
  <rect y="28" width="560" height="16" fill="#16213E"/>
  <circle cx="20" cy="22" r="5" fill="#F87171" opacity="0.7"/>
  <circle cx="36" cy="22" r="5" fill="#FBBF24" opacity="0.7"/>
  <circle cx="52" cy="22" r="5" fill="#34D399" opacity="0.7"/>
  <rect x="80" y="16" width="90" height="12" rx="4" fill="rgba(79,70,229,0.35)"/>
  <rect x="180" y="16" width="70" height="12" rx="4" fill="rgba(144,144,184,0.2)"/>

  <!-- Left sidebar -->
  <rect x="0" y="44" width="118" height="356" fill="#16213E" opacity="0.55"/>
  <rect x="12" y="64" width="94" height="10" rx="3" fill="rgba(79,70,229,0.8)"/>
  <rect x="12" y="86" width="80" height="8" rx="3" fill="rgba(144,144,184,0.35)"/>
  <rect x="12" y="106" width="88" height="8" rx="3" fill="rgba(144,144,184,0.35)"/>
  <rect x="12" y="126" width="70" height="8" rx="3" fill="rgba(144,144,184,0.35)"/>
  <rect x="12" y="146" width="82" height="8" rx="3" fill="rgba(144,144,184,0.35)"/>
  <rect x="12" y="176" width="94" height="1" fill="rgba(144,144,184,0.15)"/>
  <rect x="12" y="190" width="60" height="8" rx="3" fill="rgba(144,144,184,0.2)"/>
  <rect x="12" y="210" width="74" height="8" rx="3" fill="rgba(144,144,184,0.2)"/>

  <!-- Metric card 1 -->
  <rect x="132" y="58" width="122" height="74" rx="8" fill="#0F0F0F" stroke="rgba(79,70,229,0.25)" stroke-width="1"/>
  <rect x="144" y="72" width="56" height="7" rx="3" fill="rgba(144,144,184,0.5)"/>
  <rect x="144" y="92" width="76" height="13" rx="3" fill="rgba(232,232,255,0.85)"/>
  <rect x="144" y="112" width="46" height="7" rx="3" fill="rgba(79,70,229,0.65)"/>

  <!-- Metric card 2 -->
  <rect x="266" y="58" width="122" height="74" rx="8" fill="#0F0F0F" stroke="rgba(6,182,212,0.25)" stroke-width="1"/>
  <rect x="278" y="72" width="56" height="7" rx="3" fill="rgba(144,144,184,0.5)"/>
  <rect x="278" y="92" width="76" height="13" rx="3" fill="rgba(232,232,255,0.85)"/>
  <rect x="278" y="112" width="52" height="7" rx="3" fill="rgba(6,182,212,0.65)"/>

  <!-- Metric card 3 -->
  <rect x="400" y="58" width="148" height="74" rx="8" fill="#0F0F0F" stroke="rgba(79,70,229,0.25)" stroke-width="1"/>
  <rect x="412" y="72" width="56" height="7" rx="3" fill="rgba(144,144,184,0.5)"/>
  <rect x="412" y="92" width="76" height="13" rx="3" fill="rgba(232,232,255,0.85)"/>
  <rect x="412" y="112" width="60" height="7" rx="3" fill="rgba(79,70,229,0.65)"/>

  <!-- Bar chart -->
  <rect x="132" y="148" width="276" height="160" rx="8" fill="#0F0F0F" stroke="rgba(79,70,229,0.15)" stroke-width="1"/>
  <rect x="146" y="162" width="96" height="8" rx="3" fill="rgba(232,232,255,0.6)"/>
  <line x1="146" y1="218" x2="394" y2="218" stroke="rgba(144,144,184,0.1)" stroke-width="1"/>
  <line x1="146" y1="243" x2="394" y2="243" stroke="rgba(144,144,184,0.1)" stroke-width="1"/>
  <line x1="146" y1="268" x2="394" y2="268" stroke="rgba(144,144,184,0.1)" stroke-width="1"/>
  <rect x="156" y="236" width="22" height="52" rx="3" fill="rgba(79,70,229,0.38)"/>
  <rect x="186" y="220" width="22" height="68" rx="3" fill="rgba(79,70,229,0.58)"/>
  <rect x="216" y="205" width="22" height="83" rx="3" fill="#4F46E5"/>
  <rect x="246" y="228" width="22" height="60" rx="3" fill="rgba(79,70,229,0.48)"/>
  <rect x="276" y="213" width="22" height="75" rx="3" fill="rgba(79,70,229,0.68)"/>
  <rect x="306" y="198" width="22" height="90" rx="3" fill="#4F46E5" opacity="0.88"/>
  <rect x="336" y="210" width="22" height="78" rx="3" fill="rgba(6,182,212,0.7)"/>
  <rect x="366" y="204" width="22" height="84" rx="3" fill="#06B6D4"/>

  <!-- Line / area chart -->
  <rect x="420" y="148" width="128" height="160" rx="8" fill="#0F0F0F" stroke="rgba(6,182,212,0.15)" stroke-width="1"/>
  <rect x="432" y="162" width="76" height="8" rx="3" fill="rgba(232,232,255,0.6)"/>
  <polygon points="432,290 452,274 472,258 492,266 512,244 532,232 532,298 432,298" fill="rgba(6,182,212,0.07)"/>
  <polyline points="432,290 452,274 472,258 492,266 512,244 532,232" fill="none" stroke="#06B6D4" stroke-width="2" stroke-linecap="round" stroke-linejoin="round"/>
  <circle cx="452" cy="274" r="3" fill="#06B6D4"/>
  <circle cx="472" cy="258" r="3" fill="#06B6D4"/>
  <circle cx="492" cy="266" r="3" fill="#06B6D4"/>
  <circle cx="512" cy="244" r="3" fill="#06B6D4"/>
  <circle cx="532" cy="232" r="3" fill="#06B6D4"/>

  <!-- Bottom row / activity -->
  <rect x="132" y="324" width="416" height="56" rx="8" fill="#0F0F0F" stroke="rgba(79,70,229,0.12)" stroke-width="1"/>
  <rect x="146" y="338" width="44" height="7" rx="3" fill="rgba(144,144,184,0.4)"/>
  <rect x="146" y="354" width="130" height="7" rx="3" fill="rgba(232,232,255,0.28)"/>
  <rect x="290" y="354" width="100" height="7" rx="3" fill="rgba(232,232,255,0.28)"/>
  <rect x="430" y="354" width="66" height="7" rx="3" fill="rgba(79,70,229,0.5)"/>
  <circle cx="516" cy="342" r="5" fill="rgba(52,211,153,0.85)"/>
</svg>
